<svg xmlns="http://www.w3.org/2000/svg" viewBox="0 0 1200 630" fill="none">
  <rect width="1200" height="630" fill="#020617"/>
  <defs>
    <radialGradient id="g1" cx="20%" cy="20%" r="40%">
      <stop offset="0%" stop-color="rgba(34,211,238,0.35)"/>
      <stop offset="100%" stop-color="transparent"/>
    </radialGradient>
    <radialGradient id="g2" cx="80%" cy="20%" r="38%">
      <stop offset="0%" stop-color="rgba(16,185,129,0.22)"/>
      <stop offset="100%" stop-color="transparent"/>
    </radialGradient>
    <linearGradient id="fade" x1="0" y1="0" x2="1" y2="0">
      <stop offset="0%" stop-color="rgba(2,6,23,0.95)"/>
      <stop offset="55%" stop-color="rgba(2,6,23,0.7)"/>
      <stop offset="100%" stop-color="rgba(2,6,23,0.2)"/>
    </linearGradient>
    <linearGradient id="title" x1="0" y1="0" x2="1" y2="0">
      <stop offset="0%" stop-color="#ffffff"/>
      <stop offset="50%" stop-color="#cffafe"/>
      <stop offset="100%" stop-color="#a7f3d0"/>
    </linearGradient>
  </defs>
  <rect width="1200" height="630" fill="url(#g1)"/>
  <rect width="1200" height="630" fill="url(#g2)"/>
  <g opacity="0.45">
    <line x1="900" y1="80" x2="1050" y2="180" stroke="rgba(103,232,249,0.3)"/>
    <line x1="1050" y1="180" x2="1100" y2="320" stroke="rgba(110,231,183,0.25)"/>
    <line x1="900" y1="80" x2="1100" y2="320" stroke="rgba(103,232,249,0.15)"/>
    <line x1="850" y1="250" x2="1050" y2="180" stroke="rgba(103,232,249,0.2)"/>
    <line x1="950" y1="400" x2="1100" y2="320" stroke="rgba(110,231,183,0.2)"/>
    <line x1="800" y1="150" x2="850" y2="250" stroke="rgba(103,232,249,0.18)"/>
    <circle cx="900" cy="80" r="6" fill="rgba(103,232,249,0.9)"/>
    <circle cx="1050" cy="180" r="5" fill="rgba(110,231,183,0.85)"/>
    <circle cx="1100" cy="320" r="5" fill="rgba(103,232,249,0.8)"/>
    <circle cx="850" cy="250" r="4" fill="rgba(167,243,208,0.75)"/>
    <circle cx="950" cy="400" r="4" fill="rgba(103,232,249,0.7)"/>
    <circle cx="800" cy="150" r="4" fill="rgba(110,231,183,0.65)"/>
  </g>
  <rect width="1200" height="630" fill="url(#fade)"/>
  <rect x="72" y="72" width="56" height="56" rx="12" fill="rgba(34,211,238,0.12)" stroke="rgba(103,232,249,0.45)"/>
  <text x="144" y="110" fill="#ffffff" font-size="30" font-family="ui-sans-serif, system-ui, sans-serif">hypersnap.org</text>
  <text x="72" y="360" fill="url(#title)" font-size="96" font-weight="700" font-family="ui-sans-serif, system-ui, sans-serif">Hypersnap</text>
  <text x="72" y="430" fill="#f8fafc" font-size="36" font-family="ui-sans-serif, system-ui, sans-serif">A decentralized social network  actually decentralized.</text>
  <text x="72" y="480" fill="#94a3b8" font-size="24" font-family="ui-sans-serif, system-ui, sans-serif">Hypersnap.org made by Felirami, a solo developer contributing to the new Farcaster.</text>
</svg>
